<?xml version="1.0" encoding="UTF-8" standalone="no"?>
<!DOCTYPE svg PUBLIC "-//W3C//DTD SVG 1.1//EN" "http://www.w3.org/Graphics/SVG/1.1/DTD/svg11.dtd">
<svg xmlns="http://www.w3.org/2000/svg" xmlns:xlink="http://www.w3.org/1999/xlink" version="1.1" width="256" height="256" viewBox="0 0 256 256" xml:space="preserve"><link xmlns="" type="text/css" rel="stylesheet" id="dark-mode-custom-link"/><link xmlns="" type="text/css" rel="stylesheet" id="dark-mode-general-link"/><style xmlns="" lang="en" type="text/css" id="dark-mode-custom-style"/><style xmlns="" lang="en" type="text/css" id="dark-mode-native-style"/>
<desc>Created with Fabric.js 4.2.0</desc>
<defs>
</defs>
<rect x="0" y="0" width="100%" height="100%" fill="transparent"/>
<g transform="matrix(1 0 0 1 128 128)" id="0e048dc3-6cd3-4945-b2a0-2efe0cf5f3b2">
<rect style="stroke: none; stroke-width: 1; stroke-dasharray: none; stroke-linecap: butt; stroke-dashoffset: 0; stroke-linejoin: miter; stroke-miterlimit: 4; fill: rgb(36,39,42); fill-opacity: 0; fill-rule: nonzero; opacity: 1;" vector-effect="non-scaling-stroke" x="-128" y="-128" rx="0" ry="0" width="256" height="256"/>
</g>
<g transform="matrix(Infinity NaN NaN Infinity 0 0)" id="51fe8d75-b4e6-4767-9ee3-9717d9eac48e">
</g>
<g transform="matrix(2.41 0 0 2.41 158.93 97.76)">
<g style="" vector-effect="non-scaling-stroke">
		<g transform="matrix(1 0 0 1 -12.56 -20.49)">
<path style="stroke: none; stroke-width: 1; stroke-dasharray: none; stroke-linecap: butt; stroke-dashoffset: 0; stroke-linejoin: miter; stroke-miterlimit: 4; fill: rgb(230,233,236); fill-rule: nonzero; opacity: 1;" vector-effect="non-scaling-stroke" transform=" translate(-37.44, -29.51)" d="M 38.251 13.898 C 43.629 13.898 48.275999999999996 17.238 50.626 22.147 C 44.309 25.487 39.974999999999994 32.641999999999996 39.974999999999994 40.94 C 39.974999999999994 42.3 40.07899999999999 43.656 40.34199999999999 44.908 C 39.66199999999999 45.066 38.98599999999999 45.118 38.251999999999995 45.118 C 30.524999999999995 45.118 24.262999999999995 38.121 24.262999999999995 29.508000000000003 C 24.262 20.893 30.525 13.898 38.251 13.898 z" stroke-linecap="round"/>
</g>
		<g transform="matrix(1 0 0 1 -25.97 5.9)">
<path style="stroke: none; stroke-width: 1; stroke-dasharray: none; stroke-linecap: butt; stroke-dashoffset: 0; stroke-linejoin: miter; stroke-miterlimit: 4; fill: rgb(230,233,236); fill-rule: nonzero; opacity: 1;" vector-effect="non-scaling-stroke" transform=" translate(-24.03, -55.9)" d="M 24.575 42.926 L 25.201 42.976 L 25.672 43.08 L 26.14 43.239 L 26.611 43.5 L 27.028000000000002 43.761 L 27.445000000000004 44.126000000000005 L 27.862000000000005 44.595000000000006 L 28.279000000000007 45.11800000000001 L 28.646000000000008 45.69200000000001 L 29.06300000000001 46.37200000000001 L 29.43000000000001 47.102000000000004 L 29.74300000000001 47.884 L 30.10600000000001 48.666 L 30.419000000000008 49.555 L 30.68200000000001 50.444 L 30.995000000000008 51.331 L 31.25800000000001 52.271 L 31.51700000000001 53.158 L 31.780000000000012 54.098 L 32.03900000000001 54.985 L 32.30200000000001 55.872 L 32.56100000000001 56.761 L 32.824000000000005 57.543000000000006 C 30.734000000000005 59.47500000000001 29.536000000000005 61.772000000000006 29.536000000000005 63.651 L 29.536000000000005 68.873 L 19.51 68.873 L 18.988000000000003 68.82000000000001 L 18.571 68.768 L 18.154 68.664 L 17.787 68.508 L 17.419999999999998 68.35199999999999 L 17.057 68.14299999999999 L 16.744 67.87999999999998 L 16.431 67.62099999999998 L 16.169 67.35799999999998 L 15.96 67.04499999999997 L 15.752 66.73199999999997 L 15.544 66.36499999999997 L 15.440000000000001 66.00199999999997 L 15.336000000000002 65.63499999999996 L 15.282000000000002 65.21799999999996 L 15.232000000000001 64.80099999999996 L 15.232000000000001 49.139 L 15.282000000000002 48.980000000000004 L 15.282000000000002 48.826 L 15.336000000000002 48.617 L 15.440000000000001 48.355 L 15.544 48.145999999999994 L 15.648 47.88499999999999 L 15.807 47.62399999999999 L 15.961 47.362999999999985 L 16.119 47.10199999999998 L 16.328 46.78899999999998 L 16.587 46.52599999999998 L 16.85 46.26699999999998 L 17.109 45.951999999999984 L 17.372000000000003 45.69099999999998 L 17.685000000000002 45.42999999999998 L 17.998 45.168999999999976 L 18.365000000000002 44.90599999999998 L 18.728 44.69799999999998 L 19.095000000000002 44.43899999999998 L 19.512000000000004 44.23099999999998 L 19.879000000000005 44.02099999999998 L 20.296000000000006 43.81299999999998 L 20.763000000000005 43.655999999999985 L 21.180000000000007 43.499999999999986 L 21.651000000000007 43.34299999999999 L 22.122000000000007 43.23899999999999 L 22.590000000000007 43.13499999999999 L 23.061000000000007 43.03099999999999 L 23.582000000000008 42.97699999999999 L 24.10300000000001 42.97699999999999 L 24.575 42.926 z" stroke-linecap="round"/>
</g>
		<g transform="matrix(1 0 0 1 8.72 -9.06)">
<ellipse style="stroke: none; stroke-width: 1; stroke-dasharray: none; stroke-linecap: butt; stroke-dashoffset: 0; stroke-linejoin: miter; stroke-miterlimit: 4; fill: rgb(230,233,236); fill-rule: nonzero; opacity: 1;" vector-effect="non-scaling-stroke" cx="0" cy="0" rx="16.079" ry="17.908"/>
</g>
		<g transform="matrix(1 0 0 1 8.53 21.25)">
<polygon style="stroke: none; stroke-width: 1; stroke-dasharray: none; stroke-linecap: butt; stroke-dashoffset: 0; stroke-linejoin: miter; stroke-miterlimit: 4; fill: rgb(230,233,236); fill-rule: nonzero; opacity: 1;" vector-effect="non-scaling-stroke" points="-15.53,-14.85 -14.8,-14.8 -14.23,-14.7 -13.71,-14.49 -13.18,-14.23 -12.71,-13.91 -12.24,-13.5 -11.77,-12.97 -11.3,-12.4 -10.84,-11.72 -10.42,-10.94 -10,-10.1 -9.58,-9.21 -9.22,-8.27 -8.85,-7.28 -8.49,-6.29 -8.17,-5.25 -7.86,-4.2 -7.54,-3.11 -7.23,-2.06 -6.92,-1.02 -6.66,-0.03 -6.35,0.97 -6.03,1.96 -5.67,2.9 -5.3,3.78 -4.94,4.67 -4.46,5.46 -3.89,6.29 -3.21,7.02 -2.32,7.7 -1.23,8.17 0.03,8.33 1.23,8.17 2.37,7.65 3.26,6.97 3.94,6.19 4.46,5.4 4.93,4.57 5.3,3.68 5.66,2.79 6.03,1.85 6.34,0.86 6.65,-0.13 6.92,-1.17 7.23,-2.22 7.54,-3.31 7.86,-4.36 8.22,-5.4 8.59,-6.45 8.95,-7.49 9.32,-8.48 9.74,-9.42 10.15,-10.31 10.62,-11.1 11.09,-11.88 11.61,-12.5 12.14,-13.08 12.66,-13.6 13.18,-14.02 13.76,-14.33 14.38,-14.59 15.01,-14.75 15.74,-14.85 16.68,-14.85 17.25,-14.85 17.78,-14.8 18.3,-14.75 18.82,-14.65 19.29,-14.54 19.76,-14.38 20.23,-14.23 20.7,-14.07 21.11,-13.86 21.54,-13.65 21.95,-13.44 22.37,-13.18 22.73,-12.97 23.1,-12.66 23.41,-12.4 23.73,-12.09 24.04,-11.83 24.35,-11.51 24.62,-11.2 24.87,-10.89 25.08,-10.57 25.3,-10.26 25.5,-9.95 25.66,-9.63 25.76,-9.32 25.92,-9.06 26.03,-8.75 26.08,-8.48 26.13,-8.22 26.18,-8.01 26.23,-7.81 26.23,-7.55 26.23,10.15 26.18,10.73 26.13,11.15 26.03,11.56 25.87,11.98 25.66,12.4 25.4,12.77 25.14,13.13 24.82,13.44 24.51,13.76 24.09,14.02 23.73,14.28 23.31,14.49 22.84,14.64 22.37,14.75 21.9,14.8 21.32,14.85 -21.33,14.85 -21.9,14.8 -22.37,14.75 -22.84,14.64 -23.31,14.49 -23.73,14.28 -24.15,14.02 -24.51,13.76 -24.82,13.44 -25.14,13.13 -25.4,12.77 -25.66,12.4 -25.87,11.98 -26.03,11.56 -26.13,11.15 -26.18,10.73 -26.23,10.15 -26.23,-7.55 -26.23,-7.75 -26.18,-7.96 -26.13,-8.17 -26.08,-8.38 -26.03,-8.64 -25.87,-8.9 -25.77,-9.21 -25.61,-9.48 -25.4,-9.79 -25.19,-10.1 -24.93,-10.42 -24.67,-10.73 -24.41,-11.1 -24.09,-11.41 -23.78,-11.72 -23.41,-12.03 -23.05,-12.3 -22.63,-12.61 -22.22,-12.87 -21.8,-13.13 -21.38,-13.39 -20.91,-13.6 -20.39,-13.86 -19.92,-14.07 -19.4,-14.23 -18.87,-14.38 -18.35,-14.54 -17.78,-14.65 -17.26,-14.75 -16.68,-14.8 -16.05,-14.85 "/>
</g>
</g>
</g>
<g transform="matrix(1.87 0 0 1.87 83.13 190.6)" id="b430d476-dd6b-4ee2-a935-2e7b6af64e91">
<path style="stroke: rgb(1,1,1); stroke-width: 0; stroke-dasharray: none; stroke-linecap: butt; stroke-dashoffset: 0; stroke-linejoin: miter; stroke-miterlimit: 4; fill: rgb(230,233,236); fill-rule: nonzero; opacity: 1;" vector-effect="non-scaling-stroke" transform=" translate(-50, -50)" d="M 87.678 73.69 C 87.678 75.42699999999999 87.37899999999999 76.684 86.658 77.344 C 86 78.06299999999999 84.863 78.362 83.245 78.362 L 16.75500000000001 78.362 C 15.55800000000001 78.362 14.539000000000009 78.06299999999999 13.76100000000001 77.344 C 12.801000000000009 76.50399999999999 12.32300000000001 75.30799999999999 12.32300000000001 73.69 L 12.32300000000001 25.949999999999996 C 12.32300000000001 24.810999999999996 12.802000000000008 23.792999999999996 13.70100000000001 22.952999999999996 C 14.65900000000001 22.055999999999997 15.67800000000001 21.636999999999997 16.75500000000001 21.636999999999997 L 83.245 21.636999999999997 C 84.74300000000001 21.636999999999997 85.88000000000001 22.055999999999997 86.599 22.833999999999996 C 87.319 23.673999999999996 87.678 24.690999999999995 87.678 25.949999999999996 L 87.678 73.69 z M 36.462 49.969 L 16.755 30.503 L 16.755 70.036 L 36.462 49.969 z M 80.129 25.831 L 19.931 25.831 L 45.149 51.048 C 47.365 53.265 48.983000000000004 54.402 50.001000000000005 54.402 C 51.078 54.402 52.696000000000005 53.265 54.912000000000006 51.048 L 80.129 25.831 z M 80.01 73.631 L 60.184 53.863 L 56.949 57.037 C 55.092 58.894 52.756 59.853 50.001 59.853 C 47.306 59.853 44.97 58.894 43.113 57.037 L 39.877 53.863 L 20.051 73.631 L 80.01 73.631 z M 83.305 70.036 L 83.305 30.503 L 63.598 49.969 L 83.305 70.036 z" stroke-linecap="round"/>
</g>
</svg>